<?xml version="1.0" encoding="utf-8"?>
<!-- Generator: Adobe Illustrator 16.0.0, SVG Export Plug-In . SVG Version: 6.00 Build 0)  -->
<!DOCTYPE svg PUBLIC "-//W3C//DTD SVG 1.1//EN" "http://www.w3.org/Graphics/SVG/1.1/DTD/svg11.dtd">
<svg version="1.1" id="Layer_1" xmlns="http://www.w3.org/2000/svg" xmlns:xlink="http://www.w3.org/1999/xlink" x="0px" y="0px"
	 width="1000px" height="1000px" viewBox="0 0 1000 1000" enable-background="new 0 0 1000 1000" xml:space="preserve">
<g>
	<polygon fill="#FFFFFF" points="764.24,757.581 493.216,912.885 135.632,706.419 135.632,293.558 493.216,87.127 850.713,293.558 
		850.713,552.334 916.443,552.334 916.443,255.619 493.216,11.296 69.953,255.619 69.953,744.322 493.216,988.704 798.188,813.881 	
		"/>
	<path fill="#FFFFFF" d="M930.031,691.621c0.697,28.693-21.949,52.453-50.57,53.211c-28.55,0.612-52.384-21.999-53.083-50.631
		c-0.708-28.611,21.951-52.337,50.585-53.068C905.572,640.457,929.345,663.026,930.031,691.621"/>
	<polygon fill="#FFFFFF" points="407.501,470.846 460.63,626.255 470.804,626.255 515.59,626.255 525.769,626.255 578.897,470.846 
		578.897,626.255 635.632,626.255 635.632,373.817 578.897,373.817 555.92,373.817 493.121,559.735 430.46,373.817 407.501,373.817 
		350.709,373.817 350.709,626.255 407.501,626.255 	"/>
</g>
</svg>
