<?xml version="1.0"?>
<svg width="627" height="69" xmlns="http://www.w3.org/2000/svg" xmlns:svg="http://www.w3.org/2000/svg" viewbox="0 0 627 69">
 <g>
  <title>Layer 1</title>
  <g id="svg_1">
   <g id="Hackers_7_">
    <path id="svg_2" d="m595.062,48c5.416,0 13.923,0 16.217,0c2.049,0 4.587,1.987 4.587,5.625c0,3.569 -2.476,5.375 -4.587,5.375c-2.21,0 -28.279,0 -28.279,0l0,10c0,0 24.603,0 30.93,0c6.35,0 12.903,-3.957 12.903,-14.871c0,-10.943 -6.47,-15.129 -12.903,-15.129c-6.054,0 -14.315,0 -16.284,0c-1.982,0 -4.61,-1.893 -4.61,-5.569c0,-4.041 2.726,-5.431 4.61,-5.431c1.732,0 27.354,0 27.354,0l0,-10c0,0 -22.63,0 -29.982,0c-7.33,0 -12.996,5.377 -12.996,15.112c-0.001,9.45 5.841,14.888 13.04,14.888z" fill="#065798"/>
    <path id="svg_3" d="m557,27c0,0 4.197,0 5.754,0c3.473,0 5.246,2.264 5.246,5.658c0,1.466 0,8.342 0,8.342l11,0c0,0 0,-6.55 0,-10.635c0,-5.188 -3.357,-12.365 -13.541,-12.365c-3.769,0 -6.533,0 -8.455,0c-2.443,0 -3.531,0 -3.531,0l-7.473,0l0,51l11,0l0,-42l0,0z" fill="#065798"/>
    <path id="svg_4" d="m522.628,69c14.955,0 18.372,0 18.372,0l0,-10c0,0 -9.385,0 -17.376,0c-7.018,0 -10.542,-5 -11.711,-11l29.087,0l0,-9l-29.087,0c1.208,-6 4.92,-12 11.711,-12c6.152,0 17.376,0 17.376,0l0,-9c0,0 -4.608,0 -17.559,0c-18.554,0 -23.704,14.39 -23.704,25.729c0,11.158 5.15,25.271 22.891,25.271z" fill="#065798"/>
    <path id="svg_5" d="m465.963,47c3.517,0 12.721,0 15.229,0c3.486,0 5.809,1.356 5.809,4.743c0,1.475 0,17.257 0,17.257l11,0c0,0 0,-15.456 0,-19.549c0,-5.181 -3.912,-12.451 -14.098,-12.451c-1.572,0 -3.234,0 -4.891,0l22.072,-19l-14.234,0l-20.85,17.879l0,-35.879l-11,0l0,69l11,0l0,-22.435l-0.037,0.435z" fill="#065798"/>
    <path id="svg_6" d="m432.992,69c14.962,0 18.008,0 18.008,0l0,-10c0,0 -9.015,0 -16.997,0c-8.816,0 -12.121,-8.088 -12.166,-15.977c-0.037,-7.877 3.63,-16.023 12.166,-16.023c6.152,0 16.997,0 16.997,0l0,-9c0,0 -4.23,0 -17.179,0c-18.556,0 -23.698,14.39 -23.698,25.729c0.001,11.158 5.143,25.271 22.869,25.271z" fill="#065798"/>
    <path id="svg_7" d="m377.52,37c-12.57,0 -18.032,7.6 -18.032,16.045c0,8.363 5.917,15.955 18.221,15.955c6.987,0 14.637,0 17.728,0c0.896,0 1.421,0 1.421,0l9.144,0c0,0 0,-27.38 0,-34.596c0,-8.538 -3.228,-16.404 -15.707,-16.404c-8.681,0 -28.293,0 -28.293,0l0,9c0,0 23.242,0 26.911,0c3.677,0 6.089,3.363 6.089,7.124c0,0.34 0,1.876 0,2.876c-3.002,0 -13.116,0 -17.482,0zm17.48,22c-4,0 -15.438,0 -17.709,0c-3.57,0 -6.145,-2.965 -6.145,-6.003c0,-3.031 2.529,-5.997 5.87,-5.997c1.831,0 13.983,0 17.983,0c0.001,4 0.001,8 0.001,12z" fill="#065798"/>
    <polygon id="svg_8" points="309,39 344,39 344,69 355,69 355,0 344,0 344,29 309,29 309,0 298,0 298,69 309,69 " fill="#065798"/>
   </g>
   <g id="Matter_7_">
    <path id="svg_9" d="m269.828,30c2.294,0 4.474,0 5.583,0c3.137,0 3.589,2.574 3.589,4.042c0,1.464 0,6.958 0,6.958l15,0c0,0 0,-6.55 0,-10.634c0,-5.188 -5.54,-12.366 -14.084,-12.366c-3.334,0 -6.942,0 -10.086,0l-8.735,0l-7.095,0l0,51l16,0l0,-38.591l-0.172,-0.409z" fill="#065798"/>
    <path id="svg_10" d="m228.223,69c14.962,0 17.777,0 20.777,0c0,-6 0,-10 0,-13c-3,0 -12.696,0 -20.685,0c-3.95,0 -6.577,-3 -7.891,-6l28.576,0l0,-13l-28.553,0c1.336,-4 3.957,-7 7.868,-7c6.152,0 18.685,0 20.685,0c0,-2 0,-9 0,-12c-2,0 -7.926,0 -20.875,0c-18.001,0 -23.689,14.39 -23.689,25.729c-0.001,10.882 5.613,25.271 23.787,25.271z" fill="#065798"/>
    <path id="svg_11" d="m142,53.604c0,7.147 5.602,15.396 15.141,15.396c7.025,0 12.859,0 12.859,0l0,-13c0,0 -5.188,0 -8.165,0c-2.985,0 -4.835,-1.073 -4.835,-4.605c0,-1.201 0,-11.395 0,-21.395l20,0c0,11 0,20.826 0,23.604c0,7.147 5.121,15.396 14.661,15.396c7.033,0 12.339,0 12.339,0l0,-13c0,0 -4.652,0 -7.646,0c-2.978,0 -4.354,-1.073 -4.354,-4.605c0,-1.201 0,-11.395 0,-21.395l12,0l0,-12l-12,0c0,-10 0,-18 0,-18l-15,0c0,0 0,8 0,18l-20,0c0,-10 0,-18 0,-18l-15,0c0,0 0,8 0,18l-8,0l0,12l8,0c0,11 0,20.826 0,23.604z" fill="#065798"/>
    <path id="svg_12" d="m98.918,37c-12.562,0 -17.536,7.919 -17.536,16.366c0,8.361 5.43,15.634 17.727,15.634c6.402,0 14.036,0 17.909,0l2.521,0l12.461,0c0,0 0,-27.38 0,-34.595c0,-8.538 -5.976,-16.405 -17.36,-16.405c-8.674,0 -29.64,0 -29.64,0l0,12c0,0 21.649,0 25.311,0c3.676,0 6.689,2.574 6.689,6.334c0,0.146 0,0.666 0,0.666c-5,0 -14.026,0 -18.082,0zm18.082,19c-5,0 -14.702,0 -16.776,0c-2.499,0 -3.775,-1.75 -3.775,-3.588s1.275,-3.412 3.486,-3.412c1.679,0 12.065,0 17.065,0c0,2 0,5 0,7z" fill="#065798"/>
    <polygon id="svg_13" points="16,26.605010986328125 29.925003051757812,69 32.689002990722656,69 44.803001403808594,69 47.55999755859375,69 62,26.605010986328125 62,69 77,69 77,0 61.9219970703125,0 61.9219970703125,0 55.71000671386719,0 38.727996826171875,50.3330078125 21.76799774169922,0 15.5469970703125,0 15.5469970703125,0 0,0 0,69 16,69 " fill="#065798"/>
   </g>
  </g>
 </g>
</svg>